<svg xmlns="http://www.w3.org/2000/svg" viewBox="0 0 280 280"><path fill="#147cc4" d="M118.26 1.517C41.668 13.491-10.794 82.676 3.395 153c5.338 26.458 21.818 53.997 42.855 71.615l5.75 4.816v24.785c0 13.631.202 24.784.449 24.784.246 0 10.458-5.702 22.692-12.67l22.244-12.67 6.558 1.205c18.867 3.467 24.568 4.126 35.557 4.113 92.87-.112 160.318-83.911 133.527-165.896C252.66 30.757 185.477-8.99 118.26 1.517M37.455 86.455c-1.612 1.611-2.456 3.586-2.457 5.75-.003 3.376 30.986 94.151 33.783 98.96 2.375 4.084 5.28 4.835 18.701 4.835 14.268 0 16.786-.683 19.114-5.185 1.683-3.256 30.015-83.4 32.813-92.82 3.232-10.884.057-13.92-14.603-13.963-14.9-.045-13.779-1.42-24.822 30.468-4.951 14.3-9.739 27.985-10.638 30.412l-1.635 4.412-3.977-11.412c-2.187-6.277-6.866-19.737-10.397-29.912-8.334-24.011-8.323-24-22.898-24-9.847 0-10.689.159-12.984 2.455m108.884-.072c-2.718 2.336-2.854 2.874-3.184 12.581-.632 18.548-.118 19.036 20.034 19.036H178V191.091l2.455 2.454c2.344 2.344 3.008 2.454 14.75 2.423 18.82-.048 17.795 2.43 17.795-43.033V118h13.545c18.348 0 18.464-.105 18.433-16.705-.019-10.075-.302-12.16-1.943-14.295l-1.92-2.5-45.968-.279-45.968-.279-2.84 2.441" fill-rule="evenodd"/></svg>